<svg xmlns="http://www.w3.org/2000/svg" viewBox="0 0 512 512">
  <rect width="512" height="512" rx="80" fill="#04080a"/>
  <rect x="8" y="8" width="496" height="496" rx="74" stroke="#00ff8833" stroke-width="4" fill="none"/>
  <line x1="0" y1="170" x2="512" y2="170" stroke="#00ff8810" stroke-width="1"/>
  <line x1="0" y1="340" x2="512" y2="340" stroke="#00ff8810" stroke-width="1"/>
  <line x1="170" y1="0" x2="170" y2="512" stroke="#00ff8810" stroke-width="1"/>
  <line x1="340" y1="0" x2="340" y2="512" stroke="#00ff8810" stroke-width="1"/>
  <circle cx="256" cy="210" r="100" stroke="#00ff88" stroke-width="12" fill="none"/>
  <line x1="196" y1="310" x2="316" y2="310" stroke="#00ff88" stroke-width="12" stroke-linecap="round"/>
  <line x1="206" y1="346" x2="306" y2="346" stroke="#00ff8877" stroke-width="10" stroke-linecap="round"/>
  <line x1="220" y1="380" x2="292" y2="380" stroke="#00ff8844" stroke-width="8" stroke-linecap="round"/>
  <line x1="256" y1="90" x2="256" y2="60" stroke="#00ff88" stroke-width="10" stroke-linecap="round"/>
  <line x1="150" y1="126" x2="128" y2="104" stroke="#00ff8877" stroke-width="10" stroke-linecap="round"/>
  <line x1="362" y1="126" x2="384" y2="104" stroke="#00ff8877" stroke-width="10" stroke-linecap="round"/>
  <circle cx="256" cy="210" r="30" fill="#00ff8822"/>
  <circle cx="256" cy="210" r="16" fill="#00ff8866"/>
  <line x1="40" y1="40" x2="80" y2="40" stroke="#00ff8844" stroke-width="3"/>
  <line x1="40" y1="40" x2="40" y2="80" stroke="#00ff8844" stroke-width="3"/>
  <line x1="472" y1="40" x2="432" y2="40" stroke="#00ff8844" stroke-width="3"/>
  <line x1="472" y1="40" x2="472" y2="80" stroke="#00ff8844" stroke-width="3"/>
  <line x1="40" y1="472" x2="80" y2="472" stroke="#00ff8844" stroke-width="3"/>
  <line x1="40" y1="472" x2="40" y2="432" stroke="#00ff8844" stroke-width="3"/>
  <line x1="472" y1="472" x2="432" y2="472" stroke="#00ff8844" stroke-width="3"/>
  <line x1="472" y1="472" x2="472" y2="432" stroke="#00ff8844" stroke-width="3"/>
</svg>
